<svg width="192" height="192" viewBox="0 0 192 192" fill="none" xmlns="http://www.w3.org/2000/svg">
<g clip-path="url(#clip0_1_3)">
<mask id="mask0_1_3" style="mask-type:luminance" maskUnits="userSpaceOnUse" x="0" y="0" width="192" height="192">
<path d="M172.8 0H19.2C8.59613 0 0 8.59613 0 19.2V172.8C0 183.404 8.59613 192 19.2 192H172.8C183.404 192 192 183.404 192 172.8V19.2C192 8.59613 183.404 0 172.8 0Z" fill="white"/>
</mask>
<g mask="url(#mask0_1_3)">
<path d="M172.8 0H19.2C8.59613 0 0 8.59613 0 19.2V172.8C0 183.404 8.59613 192 19.2 192H172.8C183.404 192 192 183.404 192 172.8V19.2C192 8.59613 183.404 0 172.8 0Z" fill="#272520"/>
<path d="M161.28 56.64H30.72V136.32H161.28V56.64Z" fill="#E0B476"/>
</g>
</g>
<defs>
<clipPath id="clip0_1_3">
<rect width="192" height="192" fill="white"/>
</clipPath>
</defs>
</svg>
